HIERARCHY
ROOT Hips
{
	OFFSET 173.408295 91.952423 -518.280273
	CHANNELS 6 Xposition Yposition Zposition Zrotation Yrotation Xrotation 
	JOINT LeftUpLeg
	{
		OFFSET 0.103459 1.857827 10.548504
		CHANNELS 3 Zrotation Yrotation Xrotation
		JOINT LeftLeg
		{
			OFFSET 43.500008 0.000000 0.000004
			CHANNELS 3 Zrotation Yrotation Xrotation
			JOINT LeftFoot
			{
				OFFSET 42.372192 0.000011 0.000000
				CHANNELS 3 Zrotation Yrotation Xrotation
				JOINT LeftToe
				{
					OFFSET 17.299973 -0.000013 -0.000010
					CHANNELS 3 Zrotation Yrotation Xrotation
					End Site
					{
						OFFSET 0.000000 0.000000 0.000000
					}
				}
			}
		}
	}
	JOINT RightUpLeg
	{
		OFFSET 0.103454 1.857830 -10.548500
		CHANNELS 3 Zrotation Yrotation Xrotation
		JOINT RightLeg
		{
			OFFSET 43.500038 -0.000038 0.000004
			CHANNELS 3 Zrotation Yrotation Xrotation
			JOINT RightFoot
			{
				OFFSET 42.372253 0.000019 0.000024
				CHANNELS 3 Zrotation Yrotation Xrotation
				JOINT RightToe
				{
					OFFSET 17.299988 -0.000007 0.000004
					CHANNELS 3 Zrotation Yrotation Xrotation
					End Site
					{
						OFFSET 0.000000 0.000000 0.000000
					}
				}
			}
		}
	}
	JOINT Spine
	{
		OFFSET 6.901963 -2.603744 0.000004
		CHANNELS 3 Zrotation Yrotation Xrotation
		JOINT Spine1
		{
			OFFSET 12.588104 0.000008 -0.000010
			CHANNELS 3 Zrotation Yrotation Xrotation
			JOINT Spine2
			{
				OFFSET 12.343202 -0.000005 0.000010
				CHANNELS 3 Zrotation Yrotation Xrotation
				JOINT Neck
				{
					OFFSET 25.832897 0.000000 0.000001
					CHANNELS 3 Zrotation Yrotation Xrotation
					JOINT Head
					{
						OFFSET 11.766611 -0.000006 -0.000000
						CHANNELS 3 Zrotation Yrotation Xrotation
						End Site
						{
							OFFSET 0.000000 0.000000 0.000000
						}
					}
				}
				JOINT LeftShoulder
				{
					OFFSET 19.745899 -1.480366 6.000108
					CHANNELS 3 Zrotation Yrotation Xrotation
					JOINT LeftArm
					{
						OFFSET 11.284111 -0.000018 -0.000015
						CHANNELS 3 Zrotation Yrotation Xrotation
						JOINT LeftForeArm
						{
							OFFSET 33.000050 -0.000005 0.000028
							CHANNELS 3 Zrotation Yrotation Xrotation
							JOINT LeftHand
							{
								OFFSET 25.200012 0.000000 0.000002
								CHANNELS 3 Zrotation Yrotation Xrotation
								End Site
								{
									OFFSET 0.000000 0.000000 0.000000
								}
							}
						}
					}
				}
				JOINT RightShoulder
				{
					OFFSET 19.746111 -1.480335 -6.000074
					CHANNELS 3 Zrotation Yrotation Xrotation
					JOINT RightArm
					{
						OFFSET 11.284151 0.000036 0.000001
						CHANNELS 3 Zrotation Yrotation Xrotation
						JOINT RightForeArm
						{
							OFFSET 33.000092 -0.000035 0.000022
							CHANNELS 3 Zrotation Yrotation Xrotation
							JOINT RightHand
							{
								OFFSET 25.199768 0.000178 0.000417
								CHANNELS 3 Zrotation Yrotation Xrotation
								End Site
								{
									OFFSET 0.000000 0.000000 0.000000
								}
							}
						}
					}
				}
			}
		}
	}
}
MOTION
Frames: 16
Frame Time: 0.033333
0.000000 0.000000 1.179999 -48.330353 53.978573 24.670322 -44.740128 49.290340 24.853704 -51.990952 48.904362 24.500086 -48.293972 61.235779 22.514917 -41.872849 26.979712 23.738874 -54.922451 26.847918 22.264866 -49.075031 69.492104 22.529835 -42.067337 2.605629 19.169983 -53.942024 2.885936 17.542162 -49.255615 72.023750 24.426302 -40.649223 0.356305 26.826454 -55.816067 0.297652 25.342373 -49.949265 84.438347 22.430510 -45.636768 78.815132 22.516178 -53.881275 78.619987 22.767742 -50.070770 88.650887 26.355591 -38.198738 78.187210 22.146481 -60.701378 77.061951 22.595634 -36.066116 63.789276 20.274820 -61.725243 62.129944 21.032549 -32.127453 50.177483 25.808554 -64.018295 47.959309 26.848042 
0.000000 0.000000 1.199999 -48.345310 53.982891 24.651659 -44.752335 49.300209 24.814335 -52.009377 48.908016 24.486916 -48.324219 61.242649 22.508541 -41.857864 26.978661 23.681391 -54.932816 26.854731 22.211838 -49.099838 69.502327 22.527184 -42.044804 2.625642 19.083616 -53.992725 2.876403 17.493853 -49.280258 72.028717 24.421303 -40.586838 0.362344 26.740969 -55.845982 0.292706 25.305786 -49.956215 84.442673 22.421064 -45.647541 78.814468 22.505920 -53.901649 78.626869 22.775812 -50.097626 88.642960 26.361294 -38.215004 78.171906 22.127392 -60.720364 77.084656 22.604782 -36.090816 63.776649 20.262362 -61.763634 62.161835 21.011786 -32.173412 50.175953 25.857960 -64.076714 47.999252 26.818943 
0.000000 0.000000 1.219999 -48.364727 54.002472 24.626438 -44.775299 49.316628 24.784725 -52.027496 48.926521 24.452065 -48.341885 61.266029 22.494967 -41.838509 26.998219 23.585876 -54.925388 26.875710 22.165382 -49.111427 69.524147 22.523752 -42.005505 2.631508 19.036444 -53.972256 2.874810 17.509045 -49.296566 72.055916 24.412010 -40.553070 0.378126 26.680929 -55.788952 0.294664 25.315393 -49.964718 84.470375 22.408682 -45.658356 78.839241 22.495054 -53.911613 78.656540 22.759556 -50.124104 88.664299 26.351894 -38.224922 78.196327 22.114506 -60.726936 77.132515 22.577641 -36.091145 63.785282 20.301868 -61.790329 62.206074 20.977077 -32.164536 50.182037 25.935125 -64.124596 48.006786 26.779613 
0.000000 0.000000 1.239999 -48.386032 54.002483 24.597338 -44.804775 49.314354 24.756548 -52.050671 48.929741 24.414986 -48.356800 61.268871 22.465078 -41.829079 27.003981 23.511015 -54.947395 26.891041 22.142696 -49.112164 69.516899 22.503399 -41.970982 2.635073 18.967525 -53.976002 2.870950 17.517893 -49.300564 72.053261 24.394474 -40.517994 0.371392 26.617882 -55.789822 0.292906 25.317665 -49.961868 84.477104 22.396908 -45.659046 78.841385 22.485229 -53.907448 78.660126 22.734653 -50.141918 88.657684 26.355505 -38.225361 78.211945 22.122795 -60.730602 77.154427 22.556664 -36.057076 63.788609 20.340857 -61.828373 62.236298 20.970287 -32.174332 50.203369 26.019400 -64.161522 48.049908 26.762421 
0.000000 0.000000 1.259999 -48.409496 53.997883 24.567963 -44.825619 49.310352 24.734297 -52.073792 48.923122 24.380125 -48.383160 61.262020 22.425322 -41.816231 27.004807 23.489840 -54.970242 26.887360 22.099443 -49.135586 69.503029 22.484608 -41.950310 2.624061 18.940533 -53.953316 2.856240 17.532331 -49.321159 72.040466 24.376986 -40.455704 0.369194 26.601147 -55.778458 0.285685 25.325691 -49.962738 84.470818 22.386061 -45.672668 78.825378 22.477951 -53.913223 78.657516 22.714315 -50.154762 88.639992 26.367517 -38.222740 78.210747 22.129889 -60.742039 77.173592 22.539679 -36.046566 63.779659 20.392262 -61.880062 62.256203 20.958754 -32.169285 50.186569 26.083218 -64.239677 48.067009 26.738554 
0.000000 0.000000 1.279999 -48.442688 54.013092 24.533958 -44.857655 49.324268 24.713562 -52.107075 48.937229 24.325012 -48.402767 61.276726 22.400234 -41.814651 27.025343 23.461145 -54.986298 26.901928 22.039265 -49.145210 69.512421 22.449858 -41.923584 2.650835 18.897320 -53.923222 2.878665 17.479660 -49.331768 72.050316 24.348921 -40.445053 0.374984 26.551754 -55.778389 0.285015 25.258335 -49.958538 84.487206 22.358475 -45.669907 78.832779 22.466047 -53.915474 78.678711 22.667803 -50.165730 88.672295 26.350533 -38.212784 78.222710 22.147001 -60.749310 77.220322 22.473284 -36.048130 63.793091 20.407866 -61.929485 62.290283 20.870218 -32.182632 50.166271 26.058023 -64.355339 48.118237 26.667379 
0.000000 0.000000 1.299999 -48.482426 54.009068 24.500788 -44.899345 49.320511 24.693104 -52.144501 48.932171 24.272524 -48.434288 61.275761 22.369890 -41.815086 27.037294 23.455385 -55.022198 26.901154 22.013844 -49.172539 69.505638 22.419157 -41.872974 2.640328 18.921879 -53.932995 2.871819 17.477388 -49.360497 72.046951 24.320671 -40.393353 0.375947 26.565115 -55.789349 0.276575 25.259346 -49.956600 84.485214 22.335739 -45.680386 78.823578 22.456099 -53.925751 78.684029 22.622047 -50.187553 88.672707 26.330502 -38.218147 78.215958 22.171606 -60.766155 77.256020 22.392902 -36.055901 63.783710 20.414061 -62.001461 62.333469 20.803614 -32.174290 50.121513 25.972130 -64.501381 48.172585 26.599253 
0.000000 0.000000 1.319999 -48.528088 54.014717 24.465933 -44.942104 49.324730 24.662527 -52.205460 48.951378 24.243025 -48.470592 61.285576 22.333754 -41.840000 27.052702 23.429733 -55.084991 26.896173 22.003035 -49.199833 69.516747 22.389252 -41.841690 2.639763 18.926538 -53.948833 2.876601 17.494846 -49.392109 72.063950 24.296673 -40.372807 0.399465 26.563732 -55.818924 0.266482 25.273521 -49.962543 84.498528 22.292713 -45.690163 78.832680 22.438585 -53.946663 78.702591 22.571453 -50.218857 88.684380 26.284058 -38.215462 78.221176 22.194717 -60.792614 77.288933 22.293787 -36.041603 63.795971 20.438782 -62.073372 62.382832 20.700626 -32.224773 50.074978 25.945152 -64.677246 48.226643 26.495523 
0.000000 0.000000 1.339999 -48.574894 54.018654 24.432211 -44.989243 49.327389 24.644379 -52.258915 48.954586 24.197113 -48.510647 61.292503 22.295650 -41.868481 27.059549 23.407207 -55.116398 26.885942 22.020926 -49.227863 69.527977 22.371571 -41.823006 2.647082 18.899349 -53.990108 2.880251 17.523211 -49.429184 72.073029 24.284029 -40.374550 0.403357 26.532413 -55.870335 0.258405 25.314838 -49.986462 84.504395 22.284035 -45.713455 78.844101 22.450304 -53.974266 78.708038 22.535147 -50.277225 88.670242 26.279728 -38.230103 78.234428 22.241034 -60.824512 77.298920 22.203815 -36.048679 63.804722 20.465769 -62.138935 62.420193 20.592882 -32.291367 50.064716 25.940302 -64.862984 48.271698 26.377541 
0.000000 0.000000 1.359999 -48.622692 54.021049 24.403219 -45.041744 49.332077 24.626184 -52.309097 48.959412 24.168459 -48.553719 61.293034 22.258553 -41.888737 27.077492 23.400375 -55.138088 26.891684 22.008068 -49.259975 69.529404 22.339520 -41.789761 2.660565 18.883852 -53.976322 2.883881 17.474983 -49.467056 72.073692 24.250925 -40.364700 0.420834 26.523289 -55.878056 0.270293 25.254452 -50.022991 84.505981 22.246317 -45.746174 78.847000 22.436842 -54.007763 78.707947 22.476110 -50.339226 88.662338 26.241058 -38.272949 78.229675 22.251196 -60.849590 77.300194 22.088802 -36.078091 63.794258 20.454519 -62.195843 62.428001 20.466879 -32.301384 50.024815 25.862968 -65.007477 48.312359 26.290188 
0.000000 0.000000 1.379999 -48.663681 54.003262 24.375013 -45.085518 49.310719 24.599092 -52.352272 48.944008 24.133089 -48.583115 61.276382 22.226452 -41.894897 27.070215 23.415056 -55.147373 26.873487 22.023006 -49.274582 69.514977 22.319033 -41.721607 2.656474 18.873032 -53.955170 2.869993 17.467579 -49.490002 72.056763 24.231121 -40.334358 0.424519 26.526690 -55.892982 0.275339 25.253763 -50.059162 84.486488 22.210291 -45.773602 78.834999 22.425982 -54.031300 78.681137 22.426405 -50.411324 88.633675 26.208466 -38.295345 78.227341 22.281574 -60.872288 77.268639 22.013317 -36.055103 63.793404 20.503641 -62.245346 62.401192 20.360857 -32.297874 50.010777 25.852829 -65.158119 48.324955 26.167347 
0.000000 0.000000 1.399999 -48.706310 53.991344 24.349375 -45.127369 49.296799 24.568628 -52.393799 48.937294 24.099709 -48.612419 61.267872 22.206640 -41.910244 27.049982 23.420732 -55.170570 26.874960 22.050354 -49.307217 69.504082 22.312773 -41.668060 2.664212 18.844770 -53.945641 2.864891 17.501034 -49.528011 72.048325 24.220066 -40.313774 0.414829 26.532713 -55.905167 0.272555 25.292484 -50.118366 84.478287 22.218943 -45.820698 78.833809 22.450897 -54.078190 78.661591 22.397863 -50.500671 88.624916 26.204046 -38.340076 78.237022 22.359550 -60.913994 77.242783 21.933973 -36.052887 63.825176 20.554789 -62.283810 62.349289 20.274918 -32.257889 50.010201 25.874426 -65.325005 48.321095 26.122684 
0.000000 0.000000 1.419999 -48.741192 53.995392 24.325296 -45.159966 49.300396 24.552298 -52.424412 48.936581 24.082197 -48.638718 61.267437 22.172020 -41.912514 27.057144 23.440418 -55.168331 26.874762 22.042311 -49.345325 69.504631 22.272680 -41.620323 2.686763 18.832720 -53.914059 2.882460 17.462778 -49.573315 72.053780 24.176737 -40.259167 0.417020 26.534365 -55.900620 0.273157 25.260456 -50.177681 84.486053 22.164547 -45.874058 78.844727 22.416748 -54.125919 78.662109 22.335896 -50.586136 88.638290 26.148373 -38.399635 78.259102 22.354218 -60.955261 77.231026 21.844646 -36.062458 63.845619 20.564152 -62.295357 62.324749 20.184477 -32.230095 50.044361 25.870398 -65.373756 48.313667 25.972853 
0.000000 0.000000 1.439999 -48.770535 53.999077 24.305105 -45.191341 49.303036 24.536722 -52.454250 48.938923 24.061075 -48.664017 61.271130 22.152033 -41.904739 27.065033 23.436998 -55.179852 26.886513 22.052044 -49.378105 69.507454 22.248016 -41.531345 2.714182 18.766396 -53.909019 2.902097 17.475065 -49.608364 72.057487 24.151333 -40.167061 0.429962 26.477098 -55.913353 0.290302 25.262917 -50.209160 84.484787 22.123404 -45.906216 78.850075 22.392088 -54.160877 78.658020 22.300982 -50.634018 88.657784 26.098270 -38.428288 78.290901 22.349806 -60.983093 77.221848 21.804609 -36.042477 63.886894 20.563963 -62.312790 62.310768 20.141872 -32.159943 50.122761 25.910870 -65.429558 48.256107 25.854288 
0.000000 0.000000 1.459999 -48.789906 53.985279 24.294016 -45.210144 49.292385 24.524841 -52.471443 48.925213 24.051117 -48.682621 61.253284 22.145754 -41.891922 27.066677 23.445377 -55.167976 26.873049 22.073997 -49.406658 69.494629 22.220936 -41.462818 2.723221 18.766705 -53.897633 2.894618 17.459688 -49.642673 72.049019 24.118130 -40.125793 0.435700 26.481274 -55.930943 0.287948 25.245123 -50.257790 84.469376 22.069777 -45.944931 78.841927 22.352612 -54.203739 78.639778 22.248199 -50.674881 88.661057 26.045998 -38.471687 78.297409 22.321066 -61.021629 77.201691 21.735910 -36.026806 63.890106 20.605125 -62.325138 62.290604 20.087881 -32.046719 50.154148 26.009493 -65.482765 48.202660 25.747032 
0.000000 0.000000 1.479999 -48.801662 53.978405 24.286720 -45.220325 49.285454 24.521248 -52.480816 48.919952 24.042370 -48.697067 61.241119 22.139517 -41.872860 27.061689 23.464012 -55.160664 26.862799 22.085867 -49.428551 69.478310 22.206955 -41.424232 2.724615 18.765263 -53.896362 2.882488 17.458973 -49.670647 72.029305 24.101000 -40.082802 0.433420 26.475920 -55.973846 0.294234 25.224455 -50.294453 84.451370 22.053642 -45.972561 78.824242 22.342566 -54.237972 78.620667 22.227682 -50.708179 88.661453 26.037724 -38.498135 78.281960 22.327471 -61.055939 77.174103 21.725988 -36.004341 63.899208 20.639042 -62.317741 62.263634 20.090656 -31.967360 50.187309 26.077366 -65.459106 48.142254 25.649609 
